%TF.GenerationSoftware,KiCad,Pcbnew,(6.0.4)*%
%TF.CreationDate,2022-12-10T07:59:11-05:00*%
%TF.ProjectId,christmas tree,63687269-7374-46d6-9173-20747265652e,rev?*%
%TF.SameCoordinates,Original*%
%TF.FileFunction,Profile,NP*%
%FSLAX46Y46*%
G04 Gerber Fmt 4.6, Leading zero omitted, Abs format (unit mm)*
G04 Created by KiCad (PCBNEW (6.0.4)) date 2022-12-10 07:59:11*
%MOMM*%
%LPD*%
G01*
G04 APERTURE LIST*
%TA.AperFunction,Profile*%
%ADD10C,0.100000*%
%TD*%
G04 APERTURE END LIST*
D10*
X158877000Y-91440000D02*
X156500000Y-93010000D01*
X160655000Y-80518000D02*
X162250000Y-84890000D01*
X164860000Y-93010000D02*
X162560000Y-91440000D01*
X156500000Y-93010000D02*
X157990000Y-88160000D01*
X180975000Y-126206250D02*
X166687500Y-107950000D01*
X172243750Y-126206250D02*
X180181250Y-126206250D01*
X180181250Y-126206250D02*
X180975000Y-126206250D01*
X149225000Y-126206250D02*
X135731250Y-142875000D01*
X147637500Y-107950000D02*
X154781250Y-107950000D01*
X159110000Y-84890000D02*
X160655000Y-80518000D01*
X162642864Y-95250000D02*
G75*
G03*
X162642864Y-95250000I-1987864J0D01*
G01*
X158877000Y-91440000D02*
X147637500Y-107950000D01*
X167320000Y-84920000D02*
X163370000Y-88160000D01*
X154040000Y-84920000D02*
X159110000Y-84890000D01*
X140493750Y-126206250D02*
X141287500Y-126206250D01*
X173831250Y-107950000D02*
X162560000Y-91440000D01*
X166687500Y-107950000D02*
X173831250Y-107950000D01*
X141287500Y-126206250D02*
X149225000Y-126206250D01*
X185737500Y-142875000D02*
X172243750Y-126206250D01*
X135731250Y-142875000D02*
X185737500Y-142875000D01*
X154781250Y-107950000D02*
X140493750Y-126206250D01*
X157990000Y-88160000D02*
X154040000Y-84920000D01*
X162250000Y-84890000D02*
X167320000Y-84920000D01*
X163370000Y-88160000D02*
X164860000Y-93010000D01*
M02*
