%TF.GenerationSoftware,KiCad,Pcbnew,(6.0.4)*%
%TF.CreationDate,2022-12-07T19:03:36-05:00*%
%TF.ProjectId,christmas tree,63687269-7374-46d6-9173-20747265652e,rev?*%
%TF.SameCoordinates,Original*%
%TF.FileFunction,Legend,Top*%
%TF.FilePolarity,Positive*%
%FSLAX46Y46*%
G04 Gerber Fmt 4.6, Leading zero omitted, Abs format (unit mm)*
G04 Created by KiCad (PCBNEW (6.0.4)) date 2022-12-07 19:03:36*
%MOMM*%
%LPD*%
G01*
G04 APERTURE LIST*
%ADD10C,0.150000*%
%ADD11C,0.100000*%
G04 APERTURE END LIST*
D10*
%TO.C,SW1*%
X170800416Y-142331011D02*
X170943273Y-142378630D01*
X171181369Y-142378630D01*
X171276607Y-142331011D01*
X171324226Y-142283392D01*
X171371845Y-142188154D01*
X171371845Y-142092916D01*
X171324226Y-141997678D01*
X171276607Y-141950059D01*
X171181369Y-141902440D01*
X170990892Y-141854821D01*
X170895654Y-141807202D01*
X170848035Y-141759583D01*
X170800416Y-141664345D01*
X170800416Y-141569107D01*
X170848035Y-141473869D01*
X170895654Y-141426250D01*
X170990892Y-141378630D01*
X171228988Y-141378630D01*
X171371845Y-141426250D01*
X171705178Y-141378630D02*
X171943273Y-142378630D01*
X172133750Y-141664345D01*
X172324226Y-142378630D01*
X172562321Y-141378630D01*
X173467083Y-142378630D02*
X172895654Y-142378630D01*
X173181369Y-142378630D02*
X173181369Y-141378630D01*
X173086130Y-141521488D01*
X172990892Y-141616726D01*
X172895654Y-141664345D01*
%TO.C,BAT1*%
X158955574Y-109161271D02*
X159098431Y-109208890D01*
X159146050Y-109256509D01*
X159193669Y-109351747D01*
X159193669Y-109494604D01*
X159146050Y-109589842D01*
X159098431Y-109637461D01*
X159003193Y-109685080D01*
X158622240Y-109685080D01*
X158622240Y-108685080D01*
X158955574Y-108685080D01*
X159050812Y-108732700D01*
X159098431Y-108780319D01*
X159146050Y-108875557D01*
X159146050Y-108970795D01*
X159098431Y-109066033D01*
X159050812Y-109113652D01*
X158955574Y-109161271D01*
X158622240Y-109161271D01*
X159574621Y-109399366D02*
X160050812Y-109399366D01*
X159479383Y-109685080D02*
X159812717Y-108685080D01*
X160146050Y-109685080D01*
X160336526Y-108685080D02*
X160907955Y-108685080D01*
X160622240Y-109685080D02*
X160622240Y-108685080D01*
X161765098Y-109685080D02*
X161193669Y-109685080D01*
X161479383Y-109685080D02*
X161479383Y-108685080D01*
X161384145Y-108827938D01*
X161288907Y-108923176D01*
X161193669Y-108970795D01*
D11*
%TO.C,SW1*%
X166323750Y-136806250D02*
X166823750Y-136806250D01*
X178223750Y-141006250D02*
X178223750Y-140506250D01*
X166323750Y-136806250D02*
X166323750Y-137306250D01*
X178223750Y-136806250D02*
X177723750Y-136806250D01*
X166323750Y-141006250D02*
X166323750Y-140506250D01*
X178223750Y-141006250D02*
X177723750Y-141006250D01*
X178223750Y-136806250D02*
X178223750Y-137306250D01*
X166323750Y-141006250D02*
X166823750Y-141006250D01*
%TD*%
M02*
