%TF.GenerationSoftware,KiCad,Pcbnew,(6.0.4)*%
%TF.CreationDate,2022-12-10T07:59:11-05:00*%
%TF.ProjectId,christmas tree,63687269-7374-46d6-9173-20747265652e,rev?*%
%TF.SameCoordinates,Original*%
%TF.FileFunction,Copper,L2,Bot*%
%TF.FilePolarity,Positive*%
%FSLAX46Y46*%
G04 Gerber Fmt 4.6, Leading zero omitted, Abs format (unit mm)*
G04 Created by KiCad (PCBNEW (6.0.4)) date 2022-12-10 07:59:11*
%MOMM*%
%LPD*%
G01*
G04 APERTURE LIST*
%TA.AperFunction,ComponentPad*%
%ADD10R,1.900000X1.900000*%
%TD*%
%TA.AperFunction,ComponentPad*%
%ADD11C,1.900000*%
%TD*%
%TA.AperFunction,ComponentPad*%
%ADD12R,2.170000X2.170000*%
%TD*%
%TA.AperFunction,ComponentPad*%
%ADD13C,2.500000*%
%TD*%
%TA.AperFunction,ComponentPad*%
%ADD14R,1.800000X1.800000*%
%TD*%
%TA.AperFunction,ComponentPad*%
%ADD15C,1.800000*%
%TD*%
%TA.AperFunction,Conductor*%
%ADD16C,0.250000*%
%TD*%
G04 APERTURE END LIST*
D10*
%TO.P,SW1,1,A*%
%TO.N,Net-(BAT1-PadPos)*%
X174623750Y-138906250D03*
D11*
%TO.P,SW1,2,B*%
%TO.N,Net-(D1-Pad2)*%
X172123750Y-138906250D03*
%TO.P,SW1,3*%
%TO.N,N/C*%
X169623750Y-138906250D03*
%TD*%
D12*
%TO.P,BAT1,Neg*%
%TO.N,Net-(BAT1-PadNeg)*%
X152641300Y-121539000D03*
D13*
%TO.P,BAT1,Pos*%
%TO.N,Net-(BAT1-PadPos)*%
X172641300Y-121539000D03*
%TD*%
D14*
%TO.P,D6,1,K*%
%TO.N,Net-(D6-Pad1)*%
X156210000Y-115321000D03*
D15*
%TO.P,D6,2,A*%
%TO.N,Net-(D5-Pad1)*%
X156210000Y-112781000D03*
%TD*%
D14*
%TO.P,D7,1,K*%
%TO.N,Net-(BAT1-PadNeg)*%
X154300000Y-128016000D03*
D15*
%TO.P,D7,2,A*%
%TO.N,Net-(D6-Pad1)*%
X156840000Y-128016000D03*
%TD*%
D14*
%TO.P,D4,1,K*%
%TO.N,Net-(D4-Pad1)*%
X165481000Y-102865000D03*
D15*
%TO.P,D4,2,A*%
%TO.N,Net-(D3-Pad1)*%
X165481000Y-105405000D03*
%TD*%
D14*
%TO.P,D3,1,K*%
%TO.N,Net-(D3-Pad1)*%
X167899000Y-115824000D03*
D15*
%TO.P,D3,2,A*%
%TO.N,Net-(D2-Pad1)*%
X165359000Y-115824000D03*
%TD*%
D14*
%TO.P,D2,1,K*%
%TO.N,Net-(D2-Pad1)*%
X166502000Y-131572000D03*
D15*
%TO.P,D2,2,A*%
%TO.N,Net-(D1-Pad1)*%
X163962000Y-131572000D03*
%TD*%
D14*
%TO.P,D1,1,K*%
%TO.N,Net-(D1-Pad1)*%
X147447000Y-136393000D03*
D15*
%TO.P,D1,2,A*%
%TO.N,Net-(D1-Pad2)*%
X147447000Y-138933000D03*
%TD*%
D14*
%TO.P,D5,1,K*%
%TO.N,Net-(D5-Pad1)*%
X157607000Y-104399000D03*
D15*
%TO.P,D5,2,A*%
%TO.N,Net-(D4-Pad1)*%
X157607000Y-101859000D03*
%TD*%
D16*
%TO.N,Net-(BAT1-PadNeg)*%
X154300000Y-128016000D02*
X154300000Y-123197700D01*
X154300000Y-123197700D02*
X152641300Y-121539000D01*
%TO.N,Net-(BAT1-PadPos)*%
X174623750Y-138906250D02*
X174623750Y-133351250D01*
X171391301Y-130116301D02*
X174625000Y-133350000D01*
X174623750Y-133351250D02*
X174625000Y-133350000D01*
X171391301Y-122788999D02*
X171391301Y-130116301D01*
X172641300Y-121539000D02*
X171391301Y-122788999D01*
%TO.N,Net-(D1-Pad1)*%
X155707000Y-136393000D02*
X160528000Y-131572000D01*
X147447000Y-136393000D02*
X155707000Y-136393000D01*
X160528000Y-131572000D02*
X163962000Y-131572000D01*
%TO.N,Net-(D1-Pad2)*%
X148748261Y-137631739D02*
X170849239Y-137631739D01*
X170849239Y-137631739D02*
X172123750Y-138906250D01*
X147447000Y-138933000D02*
X148748261Y-137631739D01*
%TO.N,Net-(D2-Pad1)*%
X166502000Y-116967000D02*
X165359000Y-115824000D01*
X166502000Y-131572000D02*
X166502000Y-116967000D01*
%TO.N,Net-(D3-Pad1)*%
X167899000Y-115824000D02*
X165481000Y-113406000D01*
X165481000Y-113406000D02*
X165481000Y-105405000D01*
%TO.N,Net-(D4-Pad1)*%
X158613000Y-102865000D02*
X157607000Y-101859000D01*
X165481000Y-102865000D02*
X158613000Y-102865000D01*
%TO.N,Net-(D5-Pad1)*%
X157607000Y-104399000D02*
X157607000Y-111384000D01*
X157607000Y-111384000D02*
X156210000Y-112781000D01*
%TO.N,Net-(D6-Pad1)*%
X156210000Y-115321000D02*
X156210000Y-127386000D01*
X156210000Y-127386000D02*
X156840000Y-128016000D01*
%TD*%
M02*
