%TF.GenerationSoftware,KiCad,Pcbnew,7.0.7*%
%TF.CreationDate,2023-11-26T21:26:06-05:00*%
%TF.ProjectId,christmas tree,63687269-7374-46d6-9173-20747265652e,rev?*%
%TF.SameCoordinates,Original*%
%TF.FileFunction,Copper,L2,Bot*%
%TF.FilePolarity,Positive*%
%FSLAX46Y46*%
G04 Gerber Fmt 4.6, Leading zero omitted, Abs format (unit mm)*
G04 Created by KiCad (PCBNEW 7.0.7) date 2023-11-26 21:26:06*
%MOMM*%
%LPD*%
G01*
G04 APERTURE LIST*
%TA.AperFunction,ComponentPad*%
%ADD10R,2.286000X2.286000*%
%TD*%
%TA.AperFunction,ComponentPad*%
%ADD11C,2.540000*%
%TD*%
%TA.AperFunction,ComponentPad*%
%ADD12R,2.170000X2.170000*%
%TD*%
%TA.AperFunction,ComponentPad*%
%ADD13C,2.500000*%
%TD*%
%TA.AperFunction,ComponentPad*%
%ADD14R,1.800000X1.800000*%
%TD*%
%TA.AperFunction,ComponentPad*%
%ADD15C,1.800000*%
%TD*%
%TA.AperFunction,Conductor*%
%ADD16C,0.250000*%
%TD*%
G04 APERTURE END LIST*
D10*
%TO.P,SW1,1,A*%
%TO.N,Net-(BAT1-PadPos)*%
X176825000Y-139600000D03*
D11*
%TO.P,SW1,2,B*%
%TO.N,Net-(D2-Pad2)*%
X172062500Y-139600000D03*
%TO.P,SW1,3*%
%TO.N,N/C*%
X167300000Y-139600000D03*
%TD*%
D12*
%TO.P,BAT1,Neg*%
%TO.N,Net-(BAT1-PadNeg)*%
X152824300Y-121500000D03*
D13*
%TO.P,BAT1,Pos*%
%TO.N,Net-(BAT1-PadPos)*%
X172824300Y-121500000D03*
%TD*%
D14*
%TO.P,Dr,1,K*%
%TO.N,Net-(BAT1-PadNeg)*%
X168021000Y-129794000D03*
D15*
%TO.P,Dr,2,A*%
%TO.N,Net-(D2-Pad2)*%
X168021000Y-127254000D03*
%TD*%
D14*
%TO.P,D4,1,K*%
%TO.N,Net-(BAT1-PadNeg)*%
X157226000Y-113665000D03*
D15*
%TO.P,D4,2,A*%
%TO.N,Net-(D2-Pad2)*%
X154686000Y-113665000D03*
%TD*%
D14*
%TO.P,D7,1,K*%
%TO.N,Net-(BAT1-PadNeg)*%
X155775000Y-129700000D03*
D15*
%TO.P,D7,2,A*%
%TO.N,Net-(D2-Pad2)*%
X155775000Y-127160000D03*
%TD*%
D14*
%TO.P,D6,1,K*%
%TO.N,Net-(BAT1-PadNeg)*%
X145225000Y-140213000D03*
D15*
%TO.P,D6,2,A*%
%TO.N,Net-(D2-Pad2)*%
X145225000Y-137673000D03*
%TD*%
D14*
%TO.P,D1,1,K*%
%TO.N,Net-(BAT1-PadNeg)*%
X164700000Y-102700000D03*
D15*
%TO.P,D1,2,A*%
%TO.N,Net-(D2-Pad2)*%
X164700000Y-100160000D03*
%TD*%
D14*
%TO.P,D3,1,K*%
%TO.N,Net-(BAT1-PadNeg)*%
X155425000Y-102616000D03*
D15*
%TO.P,D3,2,A*%
%TO.N,Net-(D2-Pad2)*%
X155425000Y-100076000D03*
%TD*%
D14*
%TO.P,D2,1,K*%
%TO.N,Net-(BAT1-PadNeg)*%
X167767000Y-114808000D03*
D15*
%TO.P,D2,2,A*%
%TO.N,Net-(D2-Pad2)*%
X165227000Y-114808000D03*
%TD*%
D16*
%TO.N,Net-(BAT1-PadNeg)*%
X145225000Y-140213000D02*
X144000489Y-138988489D01*
X152824300Y-126448700D02*
X152824300Y-121500000D01*
X157226000Y-113665000D02*
X157226000Y-107188000D01*
X155425000Y-105387000D02*
X155425000Y-102616000D01*
X168021000Y-129794000D02*
X169245511Y-128569489D01*
X144000489Y-135272511D02*
X152824300Y-126448700D01*
X169245511Y-128569489D02*
X169245511Y-116286511D01*
X144000489Y-138988489D02*
X144000489Y-135272511D01*
X157307511Y-113583489D02*
X157226000Y-113665000D01*
X145225000Y-140213000D02*
X155738000Y-129700000D01*
X167927000Y-129700000D02*
X168021000Y-129794000D01*
X169245511Y-116286511D02*
X167767000Y-114808000D01*
X164616000Y-102616000D02*
X164700000Y-102700000D01*
X167767000Y-114808000D02*
X166542489Y-113583489D01*
X157226000Y-107188000D02*
X155425000Y-105387000D01*
X155425000Y-102616000D02*
X164616000Y-102616000D01*
X155775000Y-129700000D02*
X167927000Y-129700000D01*
X155738000Y-129700000D02*
X155775000Y-129700000D01*
X166542489Y-113583489D02*
X157307511Y-113583489D01*
%TD*%
M02*
