%TF.GenerationSoftware,KiCad,Pcbnew,7.0.7*%
%TF.CreationDate,2023-11-26T21:26:06-05:00*%
%TF.ProjectId,christmas tree,63687269-7374-46d6-9173-20747265652e,rev?*%
%TF.SameCoordinates,Original*%
%TF.FileFunction,Legend,Bot*%
%TF.FilePolarity,Positive*%
%FSLAX46Y46*%
G04 Gerber Fmt 4.6, Leading zero omitted, Abs format (unit mm)*
G04 Created by KiCad (PCBNEW 7.0.7) date 2023-11-26 21:26:06*
%MOMM*%
%LPD*%
G01*
G04 APERTURE LIST*
%ADD10C,1.000000*%
G04 APERTURE END LIST*
D10*
X147985671Y-116668997D02*
G75*
G03*
X173482000Y-116712998I12796329J27886697D01*
G01*
X144224287Y-132381356D02*
G75*
G03*
X177292000Y-132206999I16303753J43727546D01*
G01*
X150009409Y-104370029D02*
G75*
G03*
X171450000Y-104267000I10645621J15591469D01*
G01*
G36*
X160715350Y-80779200D02*
G01*
X160766414Y-80828525D01*
X160775257Y-80847632D01*
X162250000Y-84889999D01*
X166970977Y-84917934D01*
X167038978Y-84938339D01*
X167085152Y-84992269D01*
X167094840Y-85062601D01*
X167064966Y-85127006D01*
X167050140Y-85141352D01*
X163370000Y-88159999D01*
X163370000Y-88160000D01*
X164742011Y-92625943D01*
X164742896Y-92696934D01*
X164705260Y-92757134D01*
X164641052Y-92787429D01*
X164570657Y-92778202D01*
X164551675Y-92767783D01*
X160700000Y-90200000D01*
X156800262Y-92793732D01*
X156732464Y-92814802D01*
X156664037Y-92795874D01*
X156616706Y-92742956D01*
X156605499Y-92672849D01*
X156610039Y-92651816D01*
X157989999Y-88160000D01*
X157989999Y-88159999D01*
X154309859Y-85141352D01*
X154269875Y-85082685D01*
X154267957Y-85011714D01*
X154304712Y-84950972D01*
X154368472Y-84919745D01*
X154389022Y-84917934D01*
X159109999Y-84889999D01*
X159110000Y-84889998D01*
X160538088Y-80848834D01*
X160579644Y-80791270D01*
X160645725Y-80765311D01*
X160715350Y-80779200D01*
G37*
M02*
