%TF.GenerationSoftware,KiCad,Pcbnew,7.0.7*%
%TF.CreationDate,2023-11-26T21:26:06-05:00*%
%TF.ProjectId,christmas tree,63687269-7374-46d6-9173-20747265652e,rev?*%
%TF.SameCoordinates,Original*%
%TF.FileFunction,Legend,Top*%
%TF.FilePolarity,Positive*%
%FSLAX46Y46*%
G04 Gerber Fmt 4.6, Leading zero omitted, Abs format (unit mm)*
G04 Created by KiCad (PCBNEW 7.0.7) date 2023-11-26 21:26:06*
%MOMM*%
%LPD*%
G01*
G04 APERTURE LIST*
%ADD10C,0.150000*%
%ADD11C,0.100000*%
G04 APERTURE END LIST*
D10*
X172476667Y-143027200D02*
X172619524Y-143074819D01*
X172619524Y-143074819D02*
X172857619Y-143074819D01*
X172857619Y-143074819D02*
X172952857Y-143027200D01*
X172952857Y-143027200D02*
X173000476Y-142979580D01*
X173000476Y-142979580D02*
X173048095Y-142884342D01*
X173048095Y-142884342D02*
X173048095Y-142789104D01*
X173048095Y-142789104D02*
X173000476Y-142693866D01*
X173000476Y-142693866D02*
X172952857Y-142646247D01*
X172952857Y-142646247D02*
X172857619Y-142598628D01*
X172857619Y-142598628D02*
X172667143Y-142551009D01*
X172667143Y-142551009D02*
X172571905Y-142503390D01*
X172571905Y-142503390D02*
X172524286Y-142455771D01*
X172524286Y-142455771D02*
X172476667Y-142360533D01*
X172476667Y-142360533D02*
X172476667Y-142265295D01*
X172476667Y-142265295D02*
X172524286Y-142170057D01*
X172524286Y-142170057D02*
X172571905Y-142122438D01*
X172571905Y-142122438D02*
X172667143Y-142074819D01*
X172667143Y-142074819D02*
X172905238Y-142074819D01*
X172905238Y-142074819D02*
X173048095Y-142122438D01*
X173381429Y-142074819D02*
X173619524Y-143074819D01*
X173619524Y-143074819D02*
X173810000Y-142360533D01*
X173810000Y-142360533D02*
X174000476Y-143074819D01*
X174000476Y-143074819D02*
X174238572Y-142074819D01*
X175143333Y-143074819D02*
X174571905Y-143074819D01*
X174857619Y-143074819D02*
X174857619Y-142074819D01*
X174857619Y-142074819D02*
X174762381Y-142217676D01*
X174762381Y-142217676D02*
X174667143Y-142312914D01*
X174667143Y-142312914D02*
X174571905Y-142360533D01*
X159138574Y-109124709D02*
X159281431Y-109172328D01*
X159281431Y-109172328D02*
X159329050Y-109219947D01*
X159329050Y-109219947D02*
X159376669Y-109315185D01*
X159376669Y-109315185D02*
X159376669Y-109458042D01*
X159376669Y-109458042D02*
X159329050Y-109553280D01*
X159329050Y-109553280D02*
X159281431Y-109600900D01*
X159281431Y-109600900D02*
X159186193Y-109648519D01*
X159186193Y-109648519D02*
X158805241Y-109648519D01*
X158805241Y-109648519D02*
X158805241Y-108648519D01*
X158805241Y-108648519D02*
X159138574Y-108648519D01*
X159138574Y-108648519D02*
X159233812Y-108696138D01*
X159233812Y-108696138D02*
X159281431Y-108743757D01*
X159281431Y-108743757D02*
X159329050Y-108838995D01*
X159329050Y-108838995D02*
X159329050Y-108934233D01*
X159329050Y-108934233D02*
X159281431Y-109029471D01*
X159281431Y-109029471D02*
X159233812Y-109077090D01*
X159233812Y-109077090D02*
X159138574Y-109124709D01*
X159138574Y-109124709D02*
X158805241Y-109124709D01*
X159757622Y-109362804D02*
X160233812Y-109362804D01*
X159662384Y-109648519D02*
X159995717Y-108648519D01*
X159995717Y-108648519D02*
X160329050Y-109648519D01*
X160519527Y-108648519D02*
X161090955Y-108648519D01*
X160805241Y-109648519D02*
X160805241Y-108648519D01*
X161948098Y-109648519D02*
X161376670Y-109648519D01*
X161662384Y-109648519D02*
X161662384Y-108648519D01*
X161662384Y-108648519D02*
X161567146Y-108791376D01*
X161567146Y-108791376D02*
X161471908Y-108886614D01*
X161471908Y-108886614D02*
X161376670Y-108934233D01*
D11*
%TO.C,SW1*%
X178950000Y-141700000D02*
X178950000Y-141200000D01*
X178950000Y-141700000D02*
X178450000Y-141700000D01*
X178950000Y-137500000D02*
X178950000Y-138000000D01*
X178950000Y-137500000D02*
X178450000Y-137500000D01*
X165550000Y-141700000D02*
X166050000Y-141700000D01*
X165550000Y-141700000D02*
X165550000Y-141200000D01*
X165550000Y-137500000D02*
X166050000Y-137500000D01*
X165550000Y-137500000D02*
X165550000Y-138000000D01*
%TO.C,BAT1*%
X170858300Y-117588400D02*
X173601500Y-117588400D01*
X170858300Y-125411600D02*
X173601500Y-125411600D01*
X173601500Y-117588400D02*
X173601500Y-120433200D01*
X173601500Y-125411600D02*
X173601500Y-122566800D01*
X171518700Y-121500000D02*
G75*
G03*
X171518700Y-121500000I-11226800J0D01*
G01*
%TD*%
M02*
